<svg width="198" height="40" viewBox="0 0 198 40" fill="none" xmlns="http://www.w3.org/2000/svg">
<g id="Group">
<path id="Vector" d="M0.199951 13.4983V20.7184C2.66721 20.7167 5.1106 21.2015 7.39031 22.1451C9.67001 23.0887 11.7413 24.4725 13.4856 26.2174C15.2295 27.9617 16.6125 30.0326 17.5555 32.3117C18.4986 34.5908 18.9831 37.0335 18.9815 39.5H26.1965C26.19 32.6068 23.4492 25.9977 18.5754 21.123C13.7017 16.2483 7.09314 13.5062 0.199951 13.4983H0.199951Z" fill="#1C3554"/>
<path id="Vector_2" d="M36.2821 0.5H24.8479C30.6322 4.16563 35.5334 9.06616 39.1999 14.85V3.41576C39.1994 2.64227 38.8917 1.90064 38.3446 1.35388C37.7974 0.807129 37.0556 0.5 36.2821 0.5Z" fill="#1C3554"/>
<path id="Vector_3" d="M7.38416 0.5H0.199951V7.00068C8.81665 7.00965 17.0779 10.4365 23.1709 16.5294C29.2639 22.6222 32.6911 30.8833 32.7003 39.5H39.2V32.3158C37.7304 24.4199 33.9042 17.154 28.225 11.4749C22.5459 5.79577 15.2801 1.96955 7.38416 0.5Z" fill="#1C3554"/>
<path id="Vector_4" d="M56.8844 4.79309H52.3049V27.8749H56.8844V4.79309Z" fill="#1C3554"/>
<path id="Vector_5" d="M73.7223 14.7935C72.96 14.1005 72.0676 13.5657 71.097 13.2201C69.012 12.488 66.7398 12.488 64.6548 13.2201C63.6838 13.5654 62.7911 14.1002 62.0285 14.7935C61.2806 15.4829 60.6831 16.3194 60.2735 17.2505C59.8501 18.2662 59.6321 19.3557 59.6321 20.4562C59.6321 21.5566 59.8501 22.6461 60.2735 23.6619C60.6816 24.5956 61.2792 25.4344 62.0285 26.125C62.7897 26.8188 63.682 27.3533 64.6528 27.6973C66.7375 28.4308 69.0102 28.4308 71.095 27.6973C72.0661 27.3533 72.9586 26.8188 73.7203 26.125C74.4692 25.4341 75.0668 24.5954 75.4753 23.6619C75.8987 22.6461 76.1167 21.5566 76.1167 20.4562C76.1167 19.3557 75.8987 18.2662 75.4753 17.2505C75.066 16.3197 74.4693 15.4833 73.7223 14.7935ZM70.5777 23.1744C69.8361 23.8423 68.8735 24.212 67.8754 24.212C66.8774 24.212 65.9147 23.8423 65.1731 23.1744C64.5498 22.4049 64.2097 21.4448 64.2097 20.4546C64.2097 19.4644 64.5498 18.5043 65.1731 17.7349C65.9147 17.0669 66.8774 16.6972 67.8754 16.6972C68.8735 16.6972 69.8361 17.0669 70.5777 17.7349C71.201 18.5043 71.5411 19.4644 71.5411 20.4546C71.5411 21.4448 71.201 22.4049 70.5777 23.1744Z" fill="#1C3554"/>
<path id="Vector_6" d="M90.1628 14.9915H90.1053C89.8935 14.6941 89.6476 14.4227 89.3725 14.1827C89.0393 13.888 88.6704 13.6363 88.2744 13.4335C87.2734 12.9199 86.1623 12.6582 85.0374 12.671C84.0515 12.6537 83.0766 12.8793 82.1986 13.3278C81.3804 13.7515 80.658 14.3387 80.0762 15.053C79.4828 15.7893 79.0276 16.627 78.7327 17.5254C78.4191 18.4511 78.2592 19.4218 78.2596 20.3991C78.248 21.4482 78.4239 22.4909 78.7789 23.4781C79.1006 24.379 79.602 25.2051 80.2527 25.9063C80.901 26.5925 81.6878 27.133 82.5609 27.492C83.5101 27.8789 84.5276 28.0709 85.5526 28.0565C86.3108 28.0434 87.0604 27.8935 87.7653 27.6141C88.5559 27.3143 89.2408 26.7885 89.7348 26.1024H89.7964V27.5392C89.8136 28.0185 89.7346 28.4963 89.5641 28.9445C89.3937 29.3928 89.1352 29.8024 88.8039 30.1491C88.3836 30.521 87.8922 30.8037 87.3594 30.9801C86.8267 31.1565 86.2637 31.223 85.7045 31.1754C84.8178 31.1854 83.939 31.0084 83.1253 30.6561C82.3157 30.2944 81.5603 29.8218 80.8808 29.2521L78.3468 33.0341C79.3826 33.8683 80.5932 34.4581 81.8886 34.7593C83.1704 35.0541 84.4816 35.2025 85.7968 35.2017C88.6869 35.2017 90.8391 34.474 92.2534 33.0187C93.6676 31.5634 94.3751 29.4314 94.3758 26.6227V13.0374H90.1679L90.1628 14.9915ZM89.8877 21.7539C89.7071 22.1883 89.4423 22.5828 89.1087 22.9146C88.7692 23.253 88.371 23.527 87.9336 23.7234C87.4795 23.925 86.9881 24.0292 86.4911 24.0292C85.9942 24.0292 85.5028 23.925 85.0486 23.7234C84.6171 23.5243 84.2241 23.2505 83.8879 22.9146C83.5529 22.58 83.2871 22.1826 83.1058 21.7451C82.9244 21.3077 82.8311 20.8388 82.8311 20.3653C82.8311 19.8917 82.9244 19.4228 83.1058 18.9854C83.2871 18.548 83.5529 18.1505 83.8879 17.8159C84.2244 17.48 84.6173 17.2059 85.0486 17.0061C85.503 16.8051 85.9943 16.7013 86.4911 16.7013C86.9879 16.7013 87.4793 16.8051 87.9336 17.0061C88.3708 17.2032 88.7689 17.4775 89.1087 17.8159C89.6125 18.3223 89.9553 18.9663 90.0939 19.667C90.2325 20.3678 90.1608 21.0938 89.8877 21.7539Z" fill="#1C3554"/>
<path id="Vector_7" d="M111.58 14.7935C110.817 14.1005 109.925 13.5657 108.954 13.2201C106.869 12.488 104.597 12.488 102.512 13.2201C101.541 13.5654 100.648 14.1002 99.8859 14.7935C99.138 15.4829 98.5406 16.3194 98.1309 17.2505C97.7075 18.2662 97.4895 19.3557 97.4895 20.4562C97.4895 21.5566 97.7075 22.6461 98.1309 23.6619C98.539 24.5956 99.1366 25.4344 99.8859 26.125C100.648 26.819 101.541 27.3536 102.512 27.6973C104.597 28.4308 106.87 28.4308 108.954 27.6973C109.926 27.3533 110.818 26.8188 111.58 26.125C112.329 25.4344 112.927 24.5956 113.335 23.6619C113.758 22.6461 113.976 21.5566 113.976 20.4562C113.976 19.3557 113.758 18.2662 113.335 17.2505C112.925 16.3194 112.328 15.4829 111.58 14.7935ZM108.435 23.1744C107.694 23.8423 106.731 24.212 105.733 24.212C104.735 24.212 103.772 23.8423 103.031 23.1744C102.407 22.4049 102.067 21.4448 102.067 20.4546C102.067 19.4644 102.407 18.5043 103.031 17.7349C103.772 17.0669 104.735 16.6972 105.733 16.6972C106.731 16.6972 107.694 17.0669 108.435 17.7349C109.058 18.5043 109.398 19.4644 109.398 20.4546C109.398 21.4448 109.058 22.4049 108.435 23.1744Z" fill="#1C3554"/>
<path id="Vector_8" d="M120.051 13.1401H117.595V27.875H120.051V13.1401Z" fill="#1C3554"/>
<path id="Vector_9" d="M118.824 5.58431C118.586 5.57978 118.349 5.625 118.129 5.71708C117.91 5.80915 117.712 5.94605 117.548 6.11902C117.298 6.37078 117.129 6.69083 117.061 7.03883C116.992 7.38682 117.029 7.7472 117.165 8.07452C117.302 8.40185 117.532 8.68149 117.827 8.87819C118.122 9.07489 118.469 9.17986 118.823 9.17986C119.178 9.17986 119.524 9.07489 119.819 8.87819C120.115 8.68149 120.345 8.40185 120.481 8.07452C120.617 7.7472 120.654 7.38682 120.586 7.03883C120.518 6.69083 120.348 6.37078 120.098 6.11902C119.935 5.94597 119.737 5.80901 119.518 5.71693C119.298 5.62485 119.062 5.57967 118.824 5.58431Z" fill="#1C3554"/>
<path id="Vector_10" d="M138.218 14.9711C137.527 14.2657 136.696 13.713 135.778 13.3485C134.771 12.9515 133.697 12.7539 132.614 12.7666C131.594 12.7549 130.586 12.9815 129.67 13.4285C128.767 13.8774 127.968 14.5098 127.324 15.2851H127.258V13.1401H124.805V35.054H127.258V25.263H127.32C127.842 26.161 128.602 26.897 129.516 27.3895C130.577 27.9837 131.778 28.2828 132.994 28.2557C133.989 28.262 134.976 28.0636 135.891 27.6728C136.775 27.2978 137.573 26.7459 138.236 26.0512C138.91 25.3412 139.439 24.5075 139.795 23.5963C140.551 21.6082 140.551 19.4121 139.795 17.424C139.436 16.5106 138.9 15.6771 138.218 14.9711ZM137.352 22.6685C137.123 23.31 136.765 23.8978 136.299 24.3955C135.834 24.8931 135.272 25.29 134.647 25.5617C133.266 26.1273 131.718 26.1273 130.337 25.5617C129.711 25.29 129.148 24.8928 128.682 24.3946C128.217 23.8964 127.858 23.3078 127.629 22.6654C127.147 21.269 127.147 19.7513 127.629 18.3549C127.858 17.7124 128.217 17.1239 128.682 16.6257C129.148 16.1275 129.711 15.7302 130.337 15.4586C131.718 14.8929 133.266 14.8929 134.647 15.4586C135.273 15.7302 135.836 16.1275 136.302 16.6257C136.767 17.1239 137.126 17.7124 137.355 18.3549C137.837 19.7513 137.837 21.269 137.355 22.6654L137.352 22.6685Z" fill="#1C3554"/>
<path id="Vector_11" d="M152.733 20.5131C152.267 20.1641 151.747 19.8931 151.193 19.7105C150.586 19.5056 149.965 19.3424 149.336 19.222C148.864 19.1413 148.396 19.0365 147.935 18.9079C147.524 18.7963 147.123 18.6486 146.738 18.4666C146.43 18.3267 146.151 18.1288 145.917 17.8837C145.718 17.6644 145.611 17.3771 145.619 17.0811C145.614 16.7617 145.707 16.4485 145.886 16.1841C146.063 15.9229 146.294 15.7027 146.563 15.5385C146.851 15.3644 147.165 15.2369 147.493 15.1609C147.828 15.0778 148.173 15.0354 148.519 15.0346C149.177 15.0142 149.828 15.1838 150.392 15.5232C150.901 15.8438 151.328 16.2806 151.636 16.7978L153.682 15.4441C153.229 14.5494 152.492 13.8296 151.588 13.3966C150.676 12.9731 149.681 12.7582 148.676 12.7675C147.994 12.7659 147.316 12.8612 146.661 13.0508C146.034 13.2297 145.438 13.5069 144.897 13.8718C144.38 14.2212 143.949 14.6842 143.638 15.2255C143.316 15.802 143.153 16.4537 143.166 17.1139C143.14 17.7602 143.287 18.4017 143.591 18.9726C143.868 19.4501 144.255 19.8547 144.719 20.1529C145.233 20.4764 145.789 20.7256 146.372 20.8928C147.002 21.0817 147.663 21.2497 148.356 21.3968C148.755 21.4809 149.144 21.5753 149.521 21.68C149.874 21.7749 150.213 21.9179 150.528 22.1049C150.806 22.2696 151.047 22.4893 151.237 22.7505C151.426 23.0398 151.519 23.3811 151.504 23.7265C151.516 24.0893 151.417 24.4471 151.221 24.7528C151.026 25.0425 150.768 25.2846 150.466 25.461C150.139 25.6556 149.783 25.7943 149.411 25.8715C149.033 25.9544 148.648 25.9968 148.261 25.9977C147.496 26.0273 146.738 25.8417 146.073 25.462C145.462 25.0728 144.923 24.5787 144.483 24.0026L142.533 25.5143C143.137 26.4518 143.994 27.199 145.005 27.6696C146.041 28.0808 147.149 28.2791 148.263 28.2525C148.989 28.2532 149.712 28.1688 150.419 28.0011C151.09 27.8458 151.73 27.5742 152.308 27.1985C152.86 26.8319 153.318 26.3395 153.642 25.7617C153.995 25.1059 154.169 24.3691 154.147 23.6249C154.167 22.9851 154.038 22.3495 153.77 21.7683C153.525 21.2756 153.171 20.846 152.733 20.5131Z" fill="#1C3554"/>
<path id="Vector_12" d="M170.427 24.3803V13.1401H167.971V20.3243C167.979 21.0989 167.889 21.8713 167.703 22.6233C167.546 23.2679 167.267 23.8767 166.882 24.4173C166.516 24.9198 166.028 25.3208 165.465 25.5822C164.816 25.8701 164.112 26.0104 163.403 25.9927C162.923 26.0315 162.441 25.9545 161.997 25.7682C161.553 25.5819 161.161 25.2918 160.852 24.9222C160.262 24.0639 159.974 23.0341 160.031 21.9942V13.1401H157.575V22.2395C157.568 23.0643 157.679 23.8859 157.906 24.679C158.103 25.3821 158.454 26.0329 158.932 26.5849C159.411 27.1245 160.008 27.546 160.677 27.8165C161.474 28.1275 162.325 28.2775 163.18 28.2578C163.755 28.2624 164.328 28.1826 164.881 28.0207C165.379 27.8755 165.855 27.6639 166.297 27.3916C166.699 27.1441 167.064 26.8423 167.383 26.4946C167.67 26.1852 167.909 25.8348 168.092 25.4549H168.155C168.155 25.8757 168.165 26.2862 168.186 26.6865C168.208 27.0867 168.218 27.4856 168.217 27.8832H170.548C170.548 27.3994 170.527 26.864 170.484 26.277C170.442 25.6899 170.423 25.0577 170.427 24.3803Z" fill="#1C3554"/>
<path id="Vector_13" d="M196.969 16.3679C196.805 15.6549 196.482 14.9882 196.024 14.4179C195.562 13.866 194.966 13.4419 194.293 13.1863C193.445 12.8805 192.548 12.7364 191.648 12.7614C190.67 12.7187 189.703 12.977 188.877 13.5014C188.111 14.0507 187.468 14.7532 186.988 15.5643C186.863 15.3118 186.7 15.023 186.5 14.698C186.277 14.3471 185.995 14.038 185.666 13.7846C185.261 13.4771 184.811 13.2347 184.331 13.0662C183.687 12.8497 183.01 12.7482 182.331 12.7665C181.756 12.7618 181.183 12.8417 180.631 13.0036C180.133 13.1488 179.656 13.3604 179.214 13.6327C178.813 13.8805 178.447 14.1823 178.128 14.5297C177.842 14.8391 177.603 15.1895 177.42 15.5694H177.356C177.356 15.1486 177.346 14.7401 177.326 14.3378C177.305 13.9355 177.294 13.5404 177.294 13.1411H174.964C174.964 13.6249 174.985 14.1603 175.027 14.7473C175.068 15.3344 175.089 15.9642 175.089 16.6368V27.8759H177.547V20.6979C177.54 19.923 177.63 19.1503 177.815 18.3979C177.972 17.753 178.251 17.1441 178.636 16.6039C179.001 16.1012 179.489 15.7002 180.053 15.439C180.701 15.1509 181.406 15.0107 182.115 15.0285C182.536 14.9926 182.958 15.0687 183.34 15.2489C183.721 15.4292 184.048 15.7073 184.287 16.0548C184.814 17.1347 185.043 18.336 184.949 19.5341V27.878H187.4V19.3739C187.393 18.7679 187.494 18.1655 187.7 17.5953C187.882 17.0899 188.161 16.6248 188.521 16.2262C188.861 15.8531 189.273 15.5532 189.733 15.3446C190.198 15.1342 190.702 15.0267 191.213 15.0296C191.819 15.0075 192.423 15.1259 192.976 15.3754C193.412 15.5861 193.79 15.9 194.077 16.2899C194.354 16.6758 194.547 17.1152 194.645 17.5799C194.75 18.0662 194.802 18.5624 194.802 19.0599V27.8759H197.253V18.9337C197.262 18.0701 197.167 17.2086 196.969 16.3679Z" fill="#1C3554"/>
</g>
</svg>
