<svg width="198" height="40" viewBox="0 0 198 40" fill="none" xmlns="http://www.w3.org/2000/svg">
<g id="Group">
<path id="Vector" d="M0 13.4983V20.7184C2.46726 20.7167 4.91065 21.2015 7.19035 22.1451C9.47006 23.0887 11.5413 24.4725 13.2857 26.2174C15.0296 27.9617 16.4126 30.0326 17.3556 32.3117C18.2986 34.5908 18.7832 37.0335 18.7816 39.5H25.9966C25.9901 32.6068 23.2492 25.9977 18.3755 21.123C13.5017 16.2483 6.89319 13.5062 0 13.4983H0Z" fill="#1C3554"/>
<path id="Vector_2" d="M36.0821 0.5H24.6479C30.4323 4.16563 35.3335 9.06616 38.9999 14.85V3.41576C38.9994 2.64227 38.6918 1.90064 38.1446 1.35388C37.5975 0.807129 36.8556 0.5 36.0821 0.5Z" fill="#1C3554"/>
<path id="Vector_3" d="M7.18421 0.5H0V7.00068C8.6167 7.00965 16.8779 10.4365 22.9709 16.5294C29.064 22.6222 32.4911 30.8833 32.5003 39.5H39V32.3158C37.5304 24.4199 33.7042 17.154 28.0251 11.4749C22.346 5.79577 15.0801 1.96955 7.18421 0.5Z" fill="#1C3554"/>
<path id="Vector_4" d="M56.6844 4.79309H52.105V27.8749H56.6844V4.79309Z" fill="#1C3554"/>
<path id="Vector_5" d="M73.5224 14.7935C72.76 14.1005 71.8677 13.5657 70.8971 13.2201C68.8121 12.488 66.5399 12.488 64.4549 13.2201C63.4839 13.5654 62.5911 14.1002 61.8285 14.7935C61.0807 15.4829 60.4832 16.3194 60.0735 17.2505C59.6501 18.2662 59.4321 19.3557 59.4321 20.4562C59.4321 21.5566 59.6501 22.6461 60.0735 23.6619C60.4816 24.5956 61.0793 25.4344 61.8285 26.125C62.5898 26.8188 63.482 27.3533 64.4528 27.6973C66.5376 28.4308 68.8102 28.4308 70.895 27.6973C71.8661 27.3533 72.7587 26.8188 73.5203 26.125C74.2693 25.4341 74.8668 24.5954 75.2753 23.6619C75.6987 22.6461 75.9167 21.5566 75.9167 20.4562C75.9167 19.3557 75.6987 18.2662 75.2753 17.2505C74.866 16.3197 74.2693 15.4833 73.5224 14.7935ZM70.3777 23.1744C69.6362 23.8423 68.6735 24.212 67.6755 24.212C66.6774 24.212 65.7147 23.8423 64.9732 23.1744C64.3499 22.4049 64.0098 21.4448 64.0098 20.4546C64.0098 19.4644 64.3499 18.5043 64.9732 17.7349C65.7147 17.0669 66.6774 16.6972 67.6755 16.6972C68.6735 16.6972 69.6362 17.0669 70.3777 17.7349C71.001 18.5043 71.3411 19.4644 71.3411 20.4546C71.3411 21.4448 71.001 22.4049 70.3777 23.1744Z" fill="#1C3554"/>
<path id="Vector_6" d="M89.9628 14.9915H89.9053C89.6936 14.6941 89.4476 14.4227 89.1726 14.1827C88.8393 13.888 88.4704 13.6363 88.0744 13.4335C87.0735 12.9199 85.9624 12.6582 84.8374 12.671C83.8516 12.6537 82.8767 12.8793 81.9986 13.3278C81.1805 13.7515 80.4581 14.3387 79.8762 15.053C79.2829 15.7893 78.8277 16.627 78.5327 17.5254C78.2191 18.4511 78.0593 19.4218 78.0596 20.3991C78.048 21.4482 78.2239 22.4909 78.5789 23.4781C78.9006 24.379 79.402 25.2051 80.0527 25.9063C80.701 26.5925 81.4878 27.133 82.3609 27.492C83.3102 27.8789 84.3276 28.0709 85.3526 28.0565C86.1108 28.0434 86.8604 27.8935 87.5654 27.6141C88.3559 27.3143 89.0408 26.7885 89.5348 26.1024H89.5964V27.5392C89.6136 28.0185 89.5346 28.4963 89.3642 28.9445C89.1937 29.3928 88.9352 29.8024 88.604 30.1491C88.1837 30.521 87.6923 30.8037 87.1595 30.9801C86.6267 31.1565 86.0637 31.223 85.5045 31.1754C84.6179 31.1854 83.7391 31.0084 82.9254 30.6561C82.1158 30.2944 81.3604 29.8218 80.6808 29.2521L78.1469 33.0341C79.1826 33.8683 80.3933 34.4581 81.6887 34.7593C82.9705 35.0541 84.2816 35.2025 85.5969 35.2017C88.487 35.2017 90.6392 34.474 92.0534 33.0187C93.4677 31.5634 94.1752 29.4314 94.1758 26.6227V13.0374H89.968L89.9628 14.9915ZM89.6878 21.7539C89.5071 22.1883 89.2424 22.5828 88.9088 22.9146C88.5692 23.253 88.1711 23.527 87.7337 23.7234C87.2795 23.925 86.7881 24.0292 86.2912 24.0292C85.7943 24.0292 85.3028 23.925 84.8487 23.7234C84.4171 23.5243 84.0242 23.2505 83.6879 22.9146C83.3529 22.58 83.0871 22.1826 82.9058 21.7451C82.7245 21.3077 82.6311 20.8388 82.6311 20.3653C82.6311 19.8917 82.7245 19.4228 82.9058 18.9854C83.0871 18.548 83.3529 18.1505 83.6879 17.8159C84.0244 17.48 84.4173 17.2059 84.8487 17.0061C85.303 16.8051 85.7944 16.7013 86.2912 16.7013C86.788 16.7013 87.2793 16.8051 87.7337 17.0061C88.1709 17.2032 88.569 17.4775 88.9088 17.8159C89.4126 18.3223 89.7554 18.9663 89.894 19.667C90.0326 20.3678 89.9608 21.0938 89.6878 21.7539Z" fill="#1C3554"/>
<path id="Vector_7" d="M111.38 14.7935C110.617 14.1005 109.725 13.5657 108.754 13.2201C106.669 12.488 104.397 12.488 102.312 13.2201C101.341 13.5654 100.449 14.1002 99.686 14.7935C98.9381 15.4829 98.3406 16.3194 97.931 17.2505C97.5075 18.2662 97.2896 19.3557 97.2896 20.4562C97.2896 21.5566 97.5075 22.6461 97.931 23.6619C98.3391 24.5956 98.9367 25.4344 99.686 26.125C100.448 26.819 101.341 27.3536 102.312 27.6973C104.397 28.4308 106.67 28.4308 108.754 27.6973C109.726 27.3533 110.618 26.8188 111.38 26.125C112.129 25.4344 112.727 24.5956 113.135 23.6619C113.558 22.6461 113.776 21.5566 113.776 20.4562C113.776 19.3557 113.558 18.2662 113.135 17.2505C112.725 16.3194 112.128 15.4829 111.38 14.7935ZM108.235 23.1744C107.494 23.8423 106.531 24.212 105.533 24.212C104.535 24.212 103.572 23.8423 102.831 23.1744C102.207 22.4049 101.867 21.4448 101.867 20.4546C101.867 19.4644 102.207 18.5043 102.831 17.7349C103.572 17.0669 104.535 16.6972 105.533 16.6972C106.531 16.6972 107.494 17.0669 108.235 17.7349C108.858 18.5043 109.199 19.4644 109.199 20.4546C109.199 21.4448 108.858 22.4049 108.235 23.1744Z" fill="#1C3554"/>
<path id="Vector_8" d="M119.851 13.1401H117.395V27.875H119.851V13.1401Z" fill="#1C3554"/>
<path id="Vector_9" d="M118.624 5.58431C118.386 5.57978 118.149 5.625 117.929 5.71708C117.71 5.80915 117.512 5.94605 117.348 6.11902C117.098 6.37078 116.929 6.69083 116.861 7.03883C116.792 7.38682 116.829 7.7472 116.965 8.07452C117.102 8.40185 117.332 8.68149 117.627 8.87819C117.922 9.07489 118.269 9.17986 118.623 9.17986C118.978 9.17986 119.324 9.07489 119.62 8.87819C119.915 8.68149 120.145 8.40185 120.281 8.07452C120.418 7.7472 120.454 7.38682 120.386 7.03883C120.318 6.69083 120.148 6.37078 119.898 6.11902C119.735 5.94597 119.537 5.80901 119.318 5.71693C119.098 5.62485 118.862 5.57967 118.624 5.58431Z" fill="#1C3554"/>
<path id="Vector_10" d="M138.018 14.9711C137.327 14.2657 136.496 13.713 135.578 13.3485C134.571 12.9515 133.497 12.7539 132.414 12.7666C131.395 12.7549 130.386 12.9815 129.47 13.4285C128.567 13.8774 127.768 14.5098 127.124 15.2851H127.058V13.1401H124.605V35.054H127.058V25.263H127.12C127.642 26.161 128.402 26.897 129.316 27.3895C130.377 27.9837 131.578 28.2828 132.794 28.2557C133.789 28.262 134.776 28.0636 135.691 27.6728C136.575 27.2978 137.373 26.7459 138.036 26.0512C138.71 25.3412 139.239 24.5075 139.595 23.5963C140.351 21.6082 140.351 19.4121 139.595 17.424C139.236 16.5106 138.7 15.6771 138.018 14.9711ZM137.152 22.6685C136.923 23.31 136.565 23.8978 136.099 24.3955C135.634 24.8931 135.072 25.29 134.447 25.5617C133.066 26.1273 131.518 26.1273 130.137 25.5617C129.511 25.29 128.948 24.8928 128.482 24.3946C128.017 23.8964 127.658 23.3078 127.429 22.6654C126.947 21.269 126.947 19.7513 127.429 18.3549C127.658 17.7124 128.017 17.1239 128.482 16.6257C128.948 16.1275 129.511 15.7302 130.137 15.4586C131.518 14.8929 133.066 14.8929 134.447 15.4586C135.073 15.7302 135.636 16.1275 136.102 16.6257C136.567 17.1239 136.926 17.7124 137.155 18.3549C137.637 19.7513 137.637 21.269 137.155 22.6654L137.152 22.6685Z" fill="#1C3554"/>
<path id="Vector_11" d="M152.533 20.5131C152.067 20.1641 151.547 19.8931 150.994 19.7105C150.386 19.5056 149.766 19.3424 149.136 19.222C148.664 19.1413 148.196 19.0365 147.735 18.9079C147.324 18.7963 146.923 18.6486 146.538 18.4666C146.23 18.3267 145.951 18.1288 145.717 17.8837C145.518 17.6644 145.411 17.3771 145.419 17.0811C145.414 16.7617 145.507 16.4485 145.686 16.1841C145.863 15.9229 146.094 15.7027 146.363 15.5385C146.651 15.3644 146.965 15.2369 147.293 15.1609C147.628 15.0778 147.973 15.0354 148.319 15.0346C148.977 15.0142 149.628 15.1838 150.192 15.5232C150.702 15.8438 151.128 16.2806 151.436 16.7978L153.482 15.4441C153.029 14.5494 152.293 13.8296 151.388 13.3966C150.476 12.9731 149.481 12.7582 148.476 12.7675C147.794 12.7659 147.116 12.8612 146.461 13.0508C145.834 13.2297 145.238 13.5069 144.697 13.8718C144.18 14.2212 143.749 14.6842 143.438 15.2255C143.116 15.802 142.953 16.4537 142.966 17.1139C142.94 17.7602 143.087 18.4017 143.391 18.9726C143.668 19.4501 144.055 19.8547 144.52 20.1529C145.033 20.4764 145.589 20.7256 146.172 20.8928C146.802 21.0817 147.463 21.2497 148.156 21.3968C148.555 21.4809 148.944 21.5753 149.321 21.68C149.674 21.7749 150.014 21.9179 150.328 22.1049C150.606 22.2696 150.847 22.4893 151.037 22.7505C151.226 23.0398 151.32 23.3811 151.305 23.7265C151.316 24.0893 151.217 24.4471 151.021 24.7528C150.826 25.0425 150.568 25.2846 150.266 25.461C149.939 25.6556 149.583 25.7943 149.211 25.8715C148.833 25.9544 148.448 25.9968 148.061 25.9977C147.296 26.0273 146.538 25.8417 145.873 25.462C145.262 25.0728 144.723 24.5787 144.283 24.0026L142.333 25.5143C142.937 26.4518 143.794 27.199 144.805 27.6696C145.841 28.0808 146.949 28.2791 148.063 28.2525C148.789 28.2532 149.513 28.1688 150.219 28.0011C150.89 27.8458 151.53 27.5742 152.108 27.1985C152.66 26.8319 153.118 26.3395 153.442 25.7617C153.795 25.1059 153.969 24.3691 153.947 23.6249C153.967 22.9851 153.838 22.3495 153.57 21.7683C153.325 21.2756 152.971 20.846 152.533 20.5131Z" fill="#1C3554"/>
<path id="Vector_12" d="M170.227 24.3803V13.1401H167.771V20.3243C167.779 21.0989 167.689 21.8713 167.503 22.6233C167.346 23.2679 167.067 23.8767 166.682 24.4173C166.316 24.9198 165.828 25.3208 165.265 25.5822C164.616 25.8701 163.912 26.0104 163.203 25.9927C162.723 26.0315 162.241 25.9545 161.797 25.7682C161.353 25.5819 160.961 25.2918 160.652 24.9222C160.062 24.0639 159.774 23.0341 159.831 21.9942V13.1401H157.375V22.2395C157.368 23.0643 157.479 23.8859 157.706 24.679C157.903 25.3821 158.254 26.0329 158.732 26.5849C159.211 27.1245 159.808 27.546 160.477 27.8165C161.274 28.1275 162.125 28.2775 162.98 28.2578C163.555 28.2624 164.128 28.1826 164.681 28.0207C165.179 27.8755 165.655 27.6639 166.097 27.3916C166.499 27.1441 166.864 26.8423 167.183 26.4946C167.47 26.1852 167.709 25.8348 167.892 25.4549H167.955C167.955 25.8757 167.965 26.2862 167.986 26.6865C168.008 27.0867 168.018 27.4856 168.017 27.8832H170.348C170.348 27.3994 170.327 26.864 170.284 26.277C170.242 25.6899 170.223 25.0577 170.227 24.3803Z" fill="#1C3554"/>
<path id="Vector_13" d="M196.769 16.3679C196.605 15.6549 196.282 14.9882 195.824 14.4179C195.362 13.866 194.766 13.4419 194.093 13.1863C193.245 12.8805 192.348 12.7364 191.448 12.7614C190.47 12.7187 189.503 12.977 188.677 13.5014C187.911 14.0507 187.268 14.7532 186.788 15.5643C186.663 15.3118 186.5 15.023 186.3 14.698C186.077 14.3471 185.795 14.038 185.466 13.7846C185.061 13.4771 184.611 13.2347 184.131 13.0662C183.487 12.8497 182.81 12.7482 182.131 12.7665C181.556 12.7618 180.983 12.8417 180.431 13.0036C179.933 13.1488 179.456 13.3604 179.014 13.6327C178.613 13.8805 178.247 14.1823 177.928 14.5297C177.642 14.8391 177.403 15.1895 177.22 15.5694H177.156C177.156 15.1486 177.146 14.7401 177.126 14.3378C177.105 13.9355 177.094 13.5404 177.094 13.1411H174.764C174.764 13.6249 174.785 14.1603 174.827 14.7473C174.868 15.3344 174.889 15.9642 174.889 16.6368V27.8759H177.347V20.6979C177.34 19.923 177.43 19.1503 177.615 18.3979C177.772 17.753 178.051 17.1441 178.436 16.6039C178.801 16.1012 179.289 15.7002 179.853 15.439C180.501 15.1509 181.206 15.0107 181.916 15.0285C182.336 14.9926 182.758 15.0687 183.14 15.2489C183.521 15.4292 183.848 15.7073 184.087 16.0548C184.615 17.1347 184.843 18.336 184.749 19.5341V27.878H187.2V19.3739C187.193 18.7679 187.294 18.1655 187.5 17.5953C187.682 17.0899 187.961 16.6248 188.321 16.2262C188.661 15.8531 189.073 15.5532 189.533 15.3446C189.998 15.1342 190.503 15.0267 191.013 15.0296C191.619 15.0075 192.223 15.1259 192.776 15.3754C193.212 15.5861 193.59 15.9 193.877 16.2899C194.154 16.6758 194.347 17.1152 194.445 17.5799C194.55 18.0662 194.602 18.5624 194.602 19.0599V27.8759H197.053V18.9337C197.062 18.0701 196.967 17.2086 196.769 16.3679Z" fill="#1C3554"/>
</g>
</svg>
