<svg width="144" height="74" viewBox="0 0 144 74" fill="none" xmlns="http://www.w3.org/2000/svg">
<g id="Group">
<g id="Group_2">
<path id="Vector" d="M5.60289 42.3759L5.74123 60.5625C5.75215 62.0187 5.77855 62.9334 5.82041 63.3066C5.83184 63.4765 5.88079 63.6417 5.96372 63.7904C6.04666 63.9391 6.16153 64.0676 6.30006 64.1667C6.75558 64.4043 7.27043 64.5042 7.78178 64.4543H8.18043L8.18771 65.2188L0.906518 65.2734L0.900146 64.5089H1.36614C1.85621 64.543 2.34641 64.4443 2.78506 64.2231C2.92022 64.1383 3.03516 64.0249 3.1218 63.891C3.20844 63.757 3.26468 63.6057 3.28656 63.4476C3.35875 62.4956 3.37911 61.5404 3.34754 60.5861L3.2456 47.1159C3.32876 46.1975 3.19082 45.2725 2.84331 44.4182C2.58665 44.0481 1.96441 43.8661 0.976599 43.8721L0.971137 43.1076C1.77158 43.0899 2.56917 43.0059 3.35573 42.8564C3.99934 42.7672 4.63096 42.6063 5.23883 42.3768L5.60289 42.3759Z" fill="#1C3554"/>
<path id="Vector_2" d="M9.93065 58.3744C9.89773 57.4065 10.0628 56.442 10.4157 55.5401C10.7686 54.6382 11.3019 53.8178 11.983 53.1292C13.3529 51.7694 15.2011 51.0005 17.1313 50.9876C19.0615 50.9747 20.9198 51.7187 22.3078 53.0601C22.9982 53.7373 23.5435 54.5481 23.9102 55.4431C24.277 56.338 24.4577 57.2982 24.4412 58.2652C24.5021 59.266 24.3478 60.2682 23.9886 61.2043C23.6294 62.1403 23.0736 62.9885 22.3587 63.6915C20.9794 65.0042 19.1413 65.7252 17.2373 65.7002C16.293 65.7268 15.3528 65.567 14.4703 65.2299C13.5878 64.8929 12.7803 64.3853 12.0941 63.7361C11.375 63.0461 10.8104 62.2115 10.4374 61.2873C10.0645 60.363 9.8918 59.3703 9.93065 58.3744ZM12.6902 58.4363C12.7084 60.8525 13.1147 62.5423 13.9089 63.5059C14.3122 63.9867 14.8225 64.3666 15.3988 64.615C15.9752 64.8635 16.6017 64.9736 17.2282 64.9366C17.8595 64.9695 18.4897 64.8525 19.0671 64.5951C19.6445 64.3377 20.1527 63.9473 20.5503 63.4558C21.313 62.4807 21.6855 60.7848 21.6679 58.3681C21.6485 55.9744 21.2541 54.2706 20.4847 53.2567C20.0913 52.7503 19.5796 52.3481 18.9945 52.0855C18.4095 51.8229 17.7689 51.7078 17.129 51.7504C16.4907 51.7187 15.8543 51.843 15.2748 52.1126C14.6953 52.3822 14.1903 52.789 13.8033 53.2976C13.0443 54.3182 12.6732 56.0311 12.6902 58.4363Z" fill="#1C3554"/>
<path id="Vector_3" d="M37.318 52.5821C37.6485 52.1237 38.0739 51.7419 38.5651 51.4625C39.0564 51.1831 39.602 51.0127 40.1649 50.963C40.3898 50.9476 40.6155 50.9772 40.8288 51.05C41.0421 51.1228 41.2388 51.2374 41.4073 51.3871C41.543 51.505 41.6528 51.6498 41.7299 51.8122C41.807 51.9746 41.8496 52.1512 41.8551 52.3309C41.8605 53.0627 41.5308 53.431 40.8658 53.4359C40.6605 53.4205 40.4634 53.3495 40.2955 53.2306C40.1276 53.1116 39.9953 52.9491 39.9128 52.7605C39.6653 52.3428 39.4095 52.1325 39.1437 52.1343C38.8643 52.177 38.5966 52.2768 38.3574 52.4276C38.1183 52.5785 37.9129 52.777 37.7539 53.0108C38.3215 53.8672 38.6291 54.8696 38.6395 55.8969C38.655 57.2136 38.1511 58.4833 37.237 59.431C36.291 60.4698 34.6883 61.0365 32.4287 61.1312C30.0799 61.2258 28.9085 61.7112 28.9146 62.5874C28.9182 62.997 29.1864 63.2828 29.7192 63.4448C30.8004 63.6896 31.9053 63.815 33.0139 63.8188C34.4346 63.8455 35.8496 64.0049 37.2406 64.2949C38.0385 64.5004 38.7617 64.9278 39.3265 65.5277C39.8912 66.1275 40.2744 66.8752 40.4315 67.6839C40.5886 68.4927 40.5132 69.3294 40.2141 70.0971C39.9149 70.8647 39.4043 71.5319 38.7415 72.0211C37.217 73.027 35.409 73.5147 33.5855 73.4118C31.8538 73.5085 30.1308 73.1057 28.6215 72.2514C28.0687 71.9617 27.6028 71.5302 27.2718 71.0011C26.9407 70.4721 26.7563 69.8644 26.7375 69.2406C26.7077 68.6409 26.8915 68.0501 27.2563 67.5732C27.4396 67.354 27.6713 67.1802 27.9332 67.0657C28.195 66.9512 28.4799 66.8991 28.7653 66.9134C28.9296 66.9108 29.093 66.9379 29.2477 66.9934C28.6146 67.6346 28.2519 68.4944 28.2347 69.3953C28.2417 69.8818 28.3731 70.3584 28.6164 70.7798C28.8597 71.2012 29.2067 71.5533 29.6245 71.8027C30.8693 72.5152 32.2991 72.8379 33.7293 72.7292C35.061 72.7969 36.3806 72.4469 37.5037 71.728C37.9192 71.4572 38.2596 71.0858 38.4932 70.6482C38.7268 70.2106 38.846 69.7211 38.8398 69.2251C38.8771 68.7594 38.7813 68.2926 38.5634 67.8792C38.3455 67.4659 38.0146 67.123 37.6092 66.8906C36.2336 66.3437 34.7603 66.085 33.2806 66.1306C30.8978 66.0481 29.3505 65.766 28.6388 65.2842C28.3147 65.0985 28.0447 64.8313 27.8555 64.5091C27.6663 64.187 27.5646 63.8211 27.5603 63.4475C27.5494 61.9949 28.5569 61.0726 30.5829 60.6806C29.6333 60.1676 28.8128 59.4452 28.1837 58.5682C27.6477 57.781 27.3622 56.8502 27.3646 55.8978C27.3543 55.2247 27.4934 54.5577 27.772 53.9448C28.0505 53.3319 28.4616 52.7885 28.9756 52.3537C30.0311 51.3861 31.4146 50.8555 32.8464 50.8692C33.6701 50.8259 34.4938 50.9559 35.2641 51.251C36.0343 51.546 36.7341 51.9995 37.318 52.5821ZM29.8648 56.2619C29.7798 57.3811 30.1006 58.4935 30.7686 59.3955C31.0471 59.7062 31.3884 59.9543 31.77 60.1233C32.1515 60.2923 32.5646 60.3785 32.9819 60.3761C33.3991 60.3737 33.8112 60.2828 34.1907 60.1093C34.5703 59.9359 34.9087 59.6839 35.1837 59.37C35.8809 58.3666 36.193 57.1455 36.0629 55.9306C36.0508 54.2923 35.7213 53.1643 35.0745 52.5466C34.7894 52.2567 34.4494 52.0263 34.0744 51.8691C33.6993 51.7119 33.2968 51.631 32.8901 51.631C32.4404 51.6083 31.9927 51.704 31.5916 51.9086C31.1905 52.1132 30.8502 52.4195 30.6047 52.7969C30.0314 53.8572 29.7745 55.0599 29.8648 56.2619Z" fill="#1C3554"/>
<path id="Vector_4" d="M42.9126 58.1215C42.8798 57.1536 43.0452 56.1892 43.3986 55.2875C43.752 54.3859 44.286 53.566 44.9677 52.8781C46.3366 51.517 48.1847 50.7471 50.1151 50.7338C52.0455 50.7205 53.9041 51.465 55.2915 52.8071C55.9818 53.4845 56.527 54.2953 56.8938 55.1902C57.2606 56.0851 57.4413 57.0453 57.4249 58.0123C57.4856 59.0136 57.3306 60.0163 56.9704 60.9526C56.6102 61.889 56.0532 62.737 55.337 63.4395C53.958 64.752 52.1201 65.4726 50.2165 65.4473C49.2727 65.475 48.3326 65.3166 47.4499 64.981C46.5673 64.6454 45.7594 64.1392 45.0724 63.4914C44.3527 62.8002 43.7881 61.9641 43.4158 61.0384C43.0434 60.1127 42.8719 59.1184 42.9126 58.1215ZM45.6731 58.1843C45.6913 60.6004 46.0972 62.2906 46.8909 63.2547C47.3175 63.7105 47.8339 64.073 48.4076 64.3192C48.9813 64.5654 49.5998 64.69 50.2241 64.6852C50.8483 64.6804 51.4649 64.5463 52.0347 64.2913C52.6046 64.0364 53.1154 63.666 53.5349 63.2038C54.2983 62.2293 54.6708 60.5334 54.6526 58.116C54.6332 55.7223 54.2388 54.0188 53.4694 53.0055C53.0523 52.5292 52.5375 52.1483 51.9601 51.8886C51.3827 51.6289 50.7561 51.4964 50.123 51.5003C49.4899 51.5042 48.865 51.6443 48.2908 51.9111C47.7166 52.1779 47.2066 52.5651 46.7953 53.0465C46.0283 54.0695 45.6543 55.7833 45.6731 58.1879V58.1843Z" fill="#1C3554"/>
<path id="Vector_5" d="M64.2713 50.1904L64.3451 59.98C64.356 61.4763 64.3863 62.4189 64.4361 62.8078C64.451 62.9834 64.5039 63.1536 64.5909 63.3068C64.6779 63.46 64.7971 63.5925 64.9403 63.6952C65.4105 63.9392 65.9411 64.0422 66.4684 63.9919H66.8325L66.8389 64.781L59.2783 64.8375L59.2719 64.0483L59.8553 64.0438C60.409 64.1069 60.9676 63.9784 61.4381 63.6797C61.6746 63.4576 61.8243 63.1585 61.8604 62.836C61.8986 62.5102 61.9116 61.5643 61.8995 59.9982L61.8595 55.746C61.9144 54.734 61.8293 53.7193 61.6064 52.7306C61.5561 52.5795 61.4744 52.4407 61.3669 52.3233C61.2593 52.2058 61.1282 52.1124 60.9821 52.0489C60.5424 51.9404 60.0891 51.8977 59.6369 51.9224H59.1736L59.1672 51.1333C60.7735 51.0013 62.3592 50.6843 63.8927 50.1886L64.2713 50.1904ZM60.9038 43.0485C60.8988 42.8123 60.9418 42.5776 61.0302 42.3586C61.1186 42.1396 61.2505 41.9408 61.418 41.7743C61.5782 41.602 61.7726 41.4649 61.9887 41.3718C62.2048 41.2788 62.4379 41.2317 62.6731 41.2336C62.9073 41.228 63.1401 41.2715 63.3564 41.3613C63.5727 41.4511 63.7678 41.5853 63.9291 41.7552C64.0964 41.9202 64.2289 42.1171 64.3188 42.3343C64.4087 42.5514 64.4541 42.7844 64.4525 43.0194C64.4589 43.2574 64.4176 43.4943 64.331 43.7161C64.2444 43.9379 64.1142 44.1401 63.9482 44.3109C63.7895 44.4827 63.5965 44.6195 63.3818 44.7125C63.1671 44.8054 62.9353 44.8524 62.7013 44.8506C62.466 44.8556 62.2323 44.8118 62.0147 44.7221C61.7971 44.6323 61.6005 44.4985 61.4371 44.3291C61.2672 44.1623 61.1328 43.9629 61.0419 43.7428C60.951 43.5227 60.9056 43.2866 60.9083 43.0485H60.9038Z" fill="#1C3554"/>
<path id="Vector_6" d="M71.7289 50.133H72.1922C72.4058 50.8851 72.5097 51.664 72.5007 52.4457C73.16 51.7126 73.9561 51.1153 74.8444 50.6873C76.0931 50.1219 77.4856 49.9548 78.8326 50.2087C80.1797 50.4626 81.4158 51.1251 82.3731 52.1062C83.7179 53.5732 84.4288 55.5121 84.3509 57.5007C84.4311 59.5136 83.7515 61.483 82.4468 63.018C81.8172 63.7486 81.0326 64.3296 80.1501 64.7186C79.2676 65.1077 78.3095 65.295 77.3455 65.267C76.4869 65.276 75.6361 65.1045 74.848 64.7637C74.0063 64.3924 73.2383 63.8726 72.5808 63.2292L72.6209 68.5608C72.6027 69.5504 72.6419 70.5402 72.7383 71.5252C72.7638 71.69 72.8262 71.8469 72.9208 71.9843C73.0153 72.1217 73.1396 72.236 73.2844 72.3188C73.8113 72.5341 74.3819 72.6208 74.949 72.5719L74.9554 73.361L67.6178 73.4119L67.6114 72.6228H68.1256C68.6796 72.6853 69.2383 72.5569 69.7093 72.2588C69.9466 72.0373 70.0962 71.7378 70.1307 71.4151C70.1689 71.0904 70.182 70.1448 70.1698 68.5781L70.0743 55.8233C70.0633 54.327 70.036 53.3841 69.9924 52.9945C69.9803 52.8194 69.9296 52.6491 69.844 52.4959C69.7584 52.3426 69.64 52.2102 69.4972 52.1081C69.0271 51.8639 68.4964 51.7608 67.9691 51.8113H67.4558L67.4485 51.0222C68.896 50.8363 70.3271 50.539 71.7289 50.133ZM72.5735 62.0942C73.1183 62.7788 73.789 63.3528 74.5495 63.7853C75.2187 64.1571 75.9728 64.3493 76.7384 64.3432C77.3903 64.3324 78.0315 64.1752 78.6144 63.8831C79.1973 63.591 79.7071 63.1715 80.1059 62.6558C81.0579 61.5387 81.5246 59.7691 81.5057 57.3469C81.6232 55.6573 81.1167 53.9833 80.0823 52.6423C79.6761 52.1577 79.1679 51.7688 78.5939 51.5035C78.0199 51.2382 77.3944 51.1031 76.762 51.1078C75.9736 51.1132 75.2005 51.326 74.5203 51.7249C73.7375 52.1994 73.0541 52.8213 72.508 53.5561L72.5735 62.0942Z" fill="#1C3554"/>
<path id="Vector_7" d="M87.2187 65.0705L87.1842 60.4596L87.8531 60.4533C88.6498 63.1103 90.0487 64.4315 92.0498 64.417C92.4132 64.4413 92.7772 64.3814 93.1136 64.242C93.45 64.1026 93.7497 63.8875 93.9893 63.6133C94.3981 63.1275 94.6213 62.5125 94.6192 61.8777C94.6286 61.5467 94.5715 61.2173 94.4513 60.9088C94.3311 60.6004 94.1502 60.3192 93.9193 60.0819C93.093 59.3933 92.1707 58.8289 91.1815 58.4063C90.0469 57.9141 89.0082 57.2251 88.1134 56.3713C87.4909 55.7113 87.152 54.8336 87.1696 53.9266C87.1787 52.9554 87.523 52.0172 88.1444 51.2708C88.473 50.8511 88.8971 50.5159 89.3813 50.293C89.8655 50.0701 90.396 49.966 90.9285 49.9893C91.5162 49.9772 92.0984 50.1039 92.6279 50.3592C93.1574 50.6144 93.6191 50.991 93.9757 51.4583C94.2593 51.0762 94.4813 50.6521 94.6337 50.2014H95.2708L95.3027 54.5391L94.6656 54.5437C94.4528 53.5514 93.9883 52.6305 93.3167 51.8697C93.0347 51.5239 92.6792 51.2453 92.276 51.0542C91.8728 50.8631 91.4321 50.7642 90.9859 50.7647C90.6799 50.7538 90.375 50.8056 90.0898 50.9169C89.8046 51.0281 89.5452 51.1966 89.3276 51.4118C89.1281 51.6026 88.9699 51.8323 88.8628 52.0867C88.7557 52.3411 88.702 52.6148 88.705 52.8908C88.705 53.1911 88.7686 53.4879 88.8916 53.7618C89.0146 54.0357 89.1942 54.2805 89.4186 54.48C90.208 55.1322 91.0978 55.6522 92.0535 56.0199C94.0042 56.8864 95.1992 57.7359 95.6385 58.5684C96.0527 59.313 96.2827 60.1459 96.3093 60.9975C96.3345 61.5515 96.2421 62.1044 96.0381 62.6201C95.8342 63.1357 95.5234 63.6023 95.1261 63.9892C94.7224 64.3746 94.2465 64.6765 93.7257 64.8775C93.205 65.0786 92.6497 65.1747 92.0917 65.1606C91.437 65.1594 90.7901 65.019 90.1939 64.7488C89.5976 64.4786 89.0656 64.0847 88.6331 63.5933C88.2805 64.0266 88.0267 64.5316 87.8895 65.0732L87.2187 65.0705Z" fill="#1C3554"/>
<path id="Vector_8" d="M112.656 50.3915L112.725 59.5976C112.736 61.1291 112.766 62.0887 112.816 62.4764C112.83 62.6512 112.883 62.8204 112.972 62.9715C113.061 63.1225 113.183 63.2514 113.329 63.3484C113.818 63.5804 114.36 63.6766 114.899 63.6269L114.905 64.416C113.614 64.3769 112.326 64.5721 111.104 64.9921H110.898C110.444 63.9703 110.236 62.8561 110.291 61.7392C109.697 62.7321 108.886 63.5768 107.917 64.2094C107.027 64.7639 105.998 65.0563 104.948 65.0531C104.077 65.0775 103.216 64.8621 102.458 64.4305C101.807 64.0835 101.283 63.5376 100.963 62.8724C100.643 61.9781 100.499 61.0306 100.539 60.0818L100.503 55.299C100.519 54.306 100.483 53.3129 100.395 52.3237C100.373 52.1579 100.312 51.9997 100.217 51.862C100.122 51.7243 99.9961 51.6112 99.8488 51.5319C99.3168 51.324 98.7444 51.2403 98.1751 51.2871L98.1687 50.498L102.934 50.4616L103.008 60.2002C102.989 60.9029 103.053 61.6054 103.196 62.2935C103.343 62.7657 103.657 63.1684 104.078 63.4266C104.559 63.752 105.13 63.9185 105.711 63.9026C106.622 63.8845 107.503 63.5744 108.225 63.018C108.918 62.5547 109.477 61.9184 109.848 61.1722C110.173 60.2856 110.315 59.3421 110.265 58.399L110.241 55.228C110.23 53.6965 110.206 52.7648 110.168 52.4329C110.13 52.1012 109.972 51.7949 109.724 51.571C109.246 51.27 108.679 51.1439 108.118 51.2143H107.754L107.749 50.4252L112.656 50.3915Z" fill="#1C3554"/>
<path id="Vector_9" d="M120.605 49.7654H120.776C121.145 50.7017 121.321 51.7027 121.295 52.7088C121.956 51.8084 122.792 51.0507 123.752 50.4807C124.62 49.9855 125.602 49.7237 126.601 49.7208C127.6 49.6668 128.589 49.9361 129.422 50.4889C130.189 51.0729 130.729 51.9053 130.95 52.8435C131.685 51.8952 132.585 51.0869 133.606 50.4571C134.447 49.944 135.409 49.6644 136.393 49.647C137.368 49.6088 138.332 49.8644 139.16 50.3806C139.819 50.7545 140.314 51.3632 140.544 52.0853C140.746 53.1062 140.834 54.1461 140.807 55.1862L140.839 59.4038C140.821 60.3991 140.86 61.3947 140.956 62.3855C140.981 62.5504 141.044 62.7072 141.14 62.8435C141.237 62.9798 141.363 63.0919 141.51 63.171C142.048 63.3798 142.626 63.4629 143.201 63.414L143.207 64.2031L136.198 64.2568L136.193 63.4677C136.728 63.5008 137.263 63.4118 137.758 63.2074C137.902 63.1315 138.027 63.0236 138.123 62.892C138.218 62.7604 138.282 62.6086 138.31 62.4483C138.401 61.4426 138.428 60.4321 138.39 59.423L138.355 54.7421C138.367 54.0239 138.306 53.3063 138.173 52.6005C138.046 52.0999 137.74 51.6628 137.314 51.3709C136.79 51.013 136.163 50.8372 135.529 50.8703C134.724 50.8964 133.946 51.1655 133.297 51.6421C132.427 52.2767 131.671 53.0533 131.059 53.9393L131.102 59.4776C131.113 60.9739 131.139 61.9143 131.182 62.299C131.195 62.4734 131.245 62.6429 131.329 62.7961C131.413 62.9494 131.529 63.0828 131.67 63.1873C132.128 63.4383 132.651 63.5448 133.171 63.4931L133.179 64.2822L126.388 64.3332L126.382 63.5441C126.928 63.5779 127.474 63.4921 127.983 63.2929C128.127 63.2197 128.252 63.1149 128.349 62.9865C128.446 62.858 128.513 62.7091 128.544 62.5511C128.644 61.5369 128.675 60.5169 128.635 59.4985L128.605 55.6067C128.62 54.7097 128.564 53.8129 128.439 52.9245C128.33 52.3573 128.011 51.8519 127.547 51.5083C127.019 51.1075 126.369 50.9034 125.707 50.9313C124.934 50.9566 124.184 51.1995 123.543 51.6321C122.693 52.2027 121.938 52.9025 121.305 53.7063L121.349 59.5531C121.36 61.0955 121.391 62.0557 121.44 62.4337C121.456 62.6061 121.511 62.7726 121.601 62.9204C121.691 63.0682 121.814 63.1935 121.96 63.2865C122.459 63.5188 123.01 63.6151 123.557 63.566L123.563 64.3551L116.689 64.406L116.683 63.6169C117.224 63.6509 117.765 63.5619 118.267 63.3566C118.409 63.2819 118.533 63.1755 118.629 63.0457C118.724 62.916 118.789 62.7661 118.818 62.6076C118.909 61.5985 118.936 60.5847 118.898 59.5722L118.866 55.3719C118.855 53.7706 118.822 52.7904 118.767 52.4312C118.747 52.2636 118.688 52.1032 118.594 51.9625C118.501 51.8219 118.376 51.705 118.229 51.6212C117.713 51.4014 117.15 51.3114 116.591 51.359L116.585 50.5699C117.95 50.4488 119.298 50.179 120.605 49.7654Z" fill="#1C3554"/>
</g>
<g id="Group_3">
<path id="Vector_10" d="M130.423 33.7903H97.3425V0.710938C106.116 0.710937 114.53 4.19605 120.733 10.3996C126.937 16.6032 130.423 25.017 130.423 33.7903Z" fill="#1C3554"/>
<path id="Vector_11" d="M30.2235 33.7903H13.6833V17.2502C13.6836 12.8636 15.4263 8.65679 18.5282 5.55511C21.63 2.45343 25.8369 0.710938 30.2235 0.710938C32.3955 0.710818 34.5463 1.13853 36.5531 1.96965C38.5598 2.80077 40.3832 4.01902 41.9191 5.55484C43.455 7.09067 44.6734 8.91398 45.5046 10.9207C46.3358 12.9274 46.7636 15.0781 46.7636 17.2502C46.7636 21.6369 45.021 25.8439 41.9191 28.9458C38.8173 32.0477 34.6102 33.7903 30.2235 33.7903Z" fill="#1C3554"/>
<path id="Vector_12" d="M88.6486 33.7904H55.5683L55.4573 0.599976L78.1537 23.2955L88.6486 33.7904Z" fill="#1C3554"/>
</g>
</g>
</svg>
