<svg width="176" height="50" viewBox="0 0 176 50" fill="none" xmlns="http://www.w3.org/2000/svg">
<g id="Group">
<path id="Vector" d="M24.7928 30.803C25.552 29.2074 25.9272 27.4562 25.8885 25.6896C25.9749 23.9702 25.5627 22.2624 24.7014 20.7717C23.9377 19.5773 22.9099 18.5743 21.6973 17.8397C20.4775 17.1073 19.1662 16.5393 17.7975 16.1505C16.4059 15.753 15.1057 15.3573 13.8967 14.9635C12.8289 14.6344 11.8159 14.1485 10.8908 13.5217C10.5033 13.2498 10.1912 12.884 9.98357 12.4585C9.77596 12.0331 9.6797 11.562 9.70379 11.0892C9.68558 10.4876 9.85957 9.89591 10.2005 9.39995C10.5372 8.93062 10.9799 8.54738 11.4926 8.28141C12.0248 7.9989 12.5931 7.79031 13.1818 7.66141C13.7511 7.53192 14.3328 7.46517 14.9167 7.46236C15.9602 7.47778 16.9934 7.67108 17.9719 8.03396C18.975 8.36557 19.8622 8.9774 20.5286 9.79715L25.8437 3.98436C24.3978 2.68608 22.6852 1.71995 20.8263 1.15376C18.9577 0.589068 17.0157 0.304437 15.0637 0.309139C13.3655 0.30611 11.6758 0.548768 10.0471 1.02957C8.48947 1.4713 7.0285 2.20132 5.74003 3.18175C4.49797 4.14268 3.48081 5.36334 2.75968 6.75836C1.98792 8.29863 1.60425 10.0041 1.64204 11.7265C1.56213 13.3873 1.98608 15.0335 2.85829 16.4491C3.65197 17.6234 4.69602 18.6073 5.91535 19.3299C7.16347 20.069 8.49779 20.6516 9.88824 21.0648C11.3115 21.4958 12.6361 21.9265 13.862 22.3568C14.9548 22.7191 15.9855 23.247 16.9182 23.9219C17.3104 24.2088 17.6264 24.5874 17.8384 25.0247C18.0504 25.462 18.1521 25.9445 18.1344 26.4302C18.1498 27.0133 17.9856 27.587 17.6642 28.0737C17.3427 28.5428 16.9182 28.9323 16.4233 29.2124C15.8817 29.5216 15.2969 29.7481 14.6884 29.8844C12.7833 30.33 10.7827 30.1016 9.02719 29.2379C7.83639 28.6777 6.80161 27.8332 6.01396 26.779L0.499756 32.8392C2.07271 34.3248 3.93185 35.4743 5.96374 36.2177C8.00793 36.9285 10.1593 37.2819 12.3235 37.2623C14.0776 37.2704 15.8244 37.0363 17.5144 36.5665C19.0794 36.1397 20.5469 35.4142 21.8361 34.4298C23.0845 33.4613 24.0957 32.221 24.7928 30.803Z" fill="#1C3554"/>
<path id="Vector_2" d="M28.4177 8.05037H38.4536V36.3665H46.2022V8.05037H56.2371V1.19482H28.4177V8.05037Z" fill="#1C3554"/>
<path id="Vector_3" d="M114.635 5.29546C112.601 3.80696 110.288 2.74168 107.834 2.16262C105.142 1.50636 102.379 1.18132 99.6074 1.19473H82.0686V22.5056C82.0787 23.5389 81.902 24.5656 81.5472 25.5361C81.2213 26.4281 80.723 27.2472 80.0808 27.9467C79.4531 28.6243 78.6925 29.1652 77.8464 29.5355C76.9536 29.9231 75.9891 30.1179 75.0158 30.1071C74.0341 30.1167 73.0612 29.922 72.1587 29.5355C71.3026 29.1698 70.5327 28.6285 69.8988 27.9467C69.2572 27.2467 68.759 26.4277 68.4324 25.5361C68.0776 24.5656 67.9009 23.5389 67.911 22.5056V1.19473H60.1606V22.8041C60.1399 24.7651 60.4593 26.7149 61.1048 28.5667C61.7038 30.2729 62.6605 31.8313 63.9107 33.1377C65.2215 34.4756 66.8086 35.5111 68.5611 36.1719C70.2325 36.7959 71.993 37.1486 73.7758 37.2165L73.7128 37.2649H100.681C103.291 37.2761 105.886 36.8806 108.373 36.0925C110.726 35.3617 112.921 34.1952 114.843 32.6537C116.719 31.1326 118.24 29.2205 119.301 27.051C120.445 24.6416 121.012 21.999 120.957 19.3325C121.04 16.4384 120.455 13.5641 119.249 10.932C118.186 8.71017 116.603 6.77688 114.635 5.29546ZM111.705 24.0916C111.095 25.4383 110.158 26.6117 108.98 27.5057C107.757 28.4036 106.36 29.0368 104.879 29.3648C103.2 29.7493 101.482 29.9371 99.7599 29.9245H95.6336V8.53057H100.321C101.93 8.5241 103.533 8.73917 105.084 9.16974C106.508 9.55361 107.847 10.2019 109.032 11.0809C110.16 11.9391 111.075 13.0462 111.705 14.316C112.396 15.7523 112.736 17.3319 112.699 18.9253C112.75 20.6994 112.411 22.4632 111.705 24.0916Z" fill="#1C3554"/>
<path id="Vector_4" d="M132.695 1.19482H124.945V36.3665H132.695V1.19482Z" fill="#1C3554"/>
<path id="Vector_5" d="M174.399 26.4301C175.371 23.9986 175.852 21.3986 175.815 18.7802C175.852 16.1617 175.371 13.5617 174.399 11.1302C173.51 8.92657 172.164 6.9366 170.449 5.29185C168.719 3.66112 166.674 2.40196 164.438 1.59197C159.518 -0.130756 154.158 -0.130756 149.237 1.59197C147.002 2.40175 144.956 3.66093 143.226 5.29185C141.512 6.93675 140.165 8.92666 139.276 11.1302C138.305 13.5619 137.824 16.1618 137.861 18.7802C137.824 21.3985 138.305 23.9984 139.276 26.4301C140.165 28.6333 141.512 30.6229 143.226 32.2675C144.956 33.8996 147.001 35.1595 149.237 35.9692C154.158 37.692 159.518 37.692 164.438 35.9692C166.674 35.1593 168.72 33.8994 170.449 32.2675C172.164 30.6231 173.51 28.6335 174.399 26.4301ZM167.002 23.3256C166.516 24.656 165.763 25.8731 164.79 26.9022C163.817 27.922 162.642 28.7261 161.339 29.2625C158.447 30.3887 155.238 30.3887 152.346 29.2625C151.043 28.7261 149.867 27.922 148.895 26.9022C147.921 25.8731 147.169 24.656 146.682 23.3256C145.657 20.3904 145.657 17.1945 146.682 14.2594C147.165 12.9196 147.918 11.6934 148.895 10.6572C149.868 9.63915 151.044 8.83579 152.346 8.29869C155.238 7.1725 158.447 7.1725 161.339 8.29869C162.641 8.83579 163.816 9.63915 164.79 10.6572C165.767 11.6934 166.52 12.9196 167.002 14.2594C168.026 17.1947 168.026 20.3902 167.002 23.3256Z" fill="#1C3554"/>
<path id="Vector_6" d="M0.571045 43.664H2.6036V49.3991H4.17231V43.664H6.20578V42.2751H0.571045V43.664Z" fill="#1C3554"/>
<path id="Vector_7" d="M23.4122 42.2751L20.3333 49.3973H22.0627L22.6571 47.888H25.4238L26.0374 49.3973H27.8088L24.7097 42.2751H23.4122ZM23.1502 46.5667L24.0149 44.3524L24.8905 46.5667H23.1502Z" fill="#1C3554"/>
<path id="Vector_8" d="M48.6967 47.226H48.6757L45.6479 42.2751H43.5149V49.3991H45.0845V44.3278H45.1046L48.2137 49.3991H50.2663V42.2751H48.6967V47.226Z" fill="#1C3554"/>
<path id="Vector_9" d="M69.0516 42.2751L65.9727 49.3973H67.703L68.2965 47.888H71.0632L71.6768 49.3973H73.4482L70.3491 42.2751H69.0516ZM68.7896 46.5667L69.6543 44.3524L70.5299 46.5667H68.7896Z" fill="#1C3554"/>
<path id="Vector_10" d="M93.7728 44.9323H90.7239V42.2751H89.1543V49.3991H90.7239V46.3202H93.7728V49.3991H95.3424V42.2751H93.7728V44.9323Z" fill="#1C3554"/>
<path id="Vector_11" d="M132.098 42.2751L129.02 49.3973H130.754L131.348 47.888H134.115L134.728 49.3973H136.5L133.401 42.2751H132.098ZM131.836 46.5667L132.701 44.3524L133.577 46.5667H131.836Z" fill="#1C3554"/>
<path id="Vector_12" d="M153.751 42.2751H152.18V49.3991H153.751V42.2751Z" fill="#1C3554"/>
<path id="Vector_13" d="M174.074 46.3904C174.53 46.3254 174.941 46.0853 175.222 45.7211C175.489 45.3494 175.627 44.9004 175.615 44.4428C175.627 44.0832 175.552 43.7261 175.398 43.4009C175.263 43.1336 175.062 42.9052 174.814 42.7371C174.554 42.5663 174.264 42.4467 173.959 42.3846C173.62 42.3127 173.274 42.2772 172.928 42.2787H170.171V49.4009H171.741V46.552H172.517L174.006 49.3991H175.887L174.074 46.3904ZM173.858 44.8811C173.776 44.9875 173.666 45.0694 173.541 45.1176C173.405 45.1707 173.26 45.2015 173.114 45.2089C172.956 45.2198 172.807 45.2244 172.665 45.2244H171.741V43.6036H172.768C172.912 43.6039 173.057 43.614 173.2 43.6338C173.336 43.6502 173.469 43.6894 173.593 43.7497C173.706 43.8063 173.803 43.8909 173.874 43.9954C173.954 44.1251 173.993 44.276 173.985 44.4282C173.995 44.5891 173.95 44.7487 173.858 44.8811Z" fill="#1C3554"/>
</g>
</svg>
