<svg width="152" height="24" viewBox="0 0 152 24" fill="none" xmlns="http://www.w3.org/2000/svg">
<g id="Rating">
<path id="1" fill-rule="evenodd" clip-rule="evenodd" d="M12 19.2884L19.416 24L17.448 15.12L24 9.14526L15.372 8.37474L12 0L8.628 8.37474L0 9.14526L6.552 15.12L4.584 24L12 19.2884Z" fill="#FAA307"/>
<path id="2" fill-rule="evenodd" clip-rule="evenodd" d="M44 19.2884L51.416 24L49.448 15.12L56 9.14526L47.372 8.37474L44 0L40.628 8.37474L32 9.14526L38.552 15.12L36.584 24L44 19.2884Z" fill="#FAA307"/>
<path id="3" fill-rule="evenodd" clip-rule="evenodd" d="M76 19.2884L83.416 24L81.448 15.12L88 9.14526L79.372 8.37474L76 0L72.628 8.37474L64 9.14526L70.552 15.12L68.584 24L76 19.2884Z" fill="#FAA307"/>
<path id="4" fill-rule="evenodd" clip-rule="evenodd" d="M108 19.2884L115.416 24L113.448 15.12L120 9.14526L111.372 8.37474L108 0L104.628 8.37474L96 9.14526L102.552 15.12L100.584 24L108 19.2884Z" fill="#FAA307"/>
<path id="5" fill-rule="evenodd" clip-rule="evenodd" d="M140 19.2884L147.416 24L145.448 15.12L152 9.14526L143.372 8.37474L140 0L136.628 8.37474L128 9.14526L134.552 15.12L132.584 24L140 19.2884Z" fill="#FAA307"/>
</g>
</svg>
